<?xml version="1.0" standalone="no"?>
<!DOCTYPE svg PUBLIC "-//W3C//DTD SVG 20010904//EN"
 "http://www.w3.org/TR/2001/REC-SVG-20010904/DTD/svg10.dtd">
<svg version="1.0" xmlns="http://www.w3.org/2000/svg"
 width="1080.000000pt" height="400.000000pt" viewBox="0 0 1080.000000 400.000000"
 preserveAspectRatio="xMidYMid meet">

<g transform="translate(0.000000,400.000000) scale(0.100000,-0.100000)"
fill="#000000" stroke="none">
<path d="M6745 3583 c-18 -48 -36 -543 -45 -1273 -4 -338 -11 -700 -14 -805
-4 -104 -4 -219 1 -255 l8 -65 75 0 75 0 5 302 c3 166 8 305 12 309 4 4 147
-132 318 -302 l311 -309 135 -3 c75 -2 143 -1 152 3 12 4 -74 96 -342 364
l-358 358 109 80 c59 44 160 117 223 163 206 150 293 223 276 232 -19 11 -85
-6 -141 -34 -69 -36 -184 -116 -380 -268 -104 -81 -216 -164 -247 -184 l-57
-36 -7 48 c-4 26 -4 211 -1 412 8 430 1 550 -43 714 -66 248 -32 341 134 367
144 23 166 30 196 60 45 45 39 54 -33 54 -45 0 -81 8 -132 29 -39 16 -98 31
-133 34 -34 2 -65 9 -68 13 -8 14 -21 10 -29 -8z"/>
<path d="M1586 2859 c-42 -36 -54 -83 -37 -139 36 -119 202 -122 241 -4 7 20
9 51 5 71 -13 73 -52 103 -130 103 -35 0 -52 -6 -79 -31z"/>
<path d="M215 2798 c-3 -7 -4 -373 -3 -813 l3 -800 113 -3 112 -3 0 396 c0
217 2 395 4 395 2 0 33 -11 68 -24 101 -38 212 -57 333 -57 261 1 442 98 532
287 37 77 38 82 38 194 0 106 -2 120 -29 178 -67 145 -214 226 -457 252 -144
15 -708 13 -714 -2z m725 -103 c113 -36 177 -85 214 -165 18 -38 21 -64 21
-165 0 -114 -2 -123 -32 -187 -76 -161 -211 -229 -425 -214 -103 7 -211 33
-252 60 l-26 16 0 334 c0 183 3 336 8 340 4 5 104 6 222 3 167 -3 227 -8 270
-22z"/>
<path d="M3522 2369 c-174 -30 -289 -117 -323 -244 -33 -120 52 -264 204 -349
35 -20 124 -61 198 -92 209 -88 289 -140 320 -208 39 -87 13 -160 -74 -204
-63 -33 -199 -41 -306 -18 -153 32 -286 123 -330 226 -21 50 -46 64 -58 35
-11 -30 55 -141 117 -198 106 -99 246 -147 424 -147 171 0 291 43 386 139 106
106 108 231 5 357 -53 64 -155 128 -339 209 -185 83 -291 147 -319 193 -28 49
-32 111 -7 150 34 54 106 82 217 82 185 0 318 -72 389 -211 17 -34 28 -47 39
-43 22 9 19 38 -10 98 -44 93 -147 172 -272 209 -67 20 -194 28 -261 16z"/>
<path d="M4655 2364 c-174 -38 -322 -152 -402 -309 -132 -256 -93 -508 107
-699 133 -127 290 -189 475 -189 116 0 198 19 300 69 77 37 165 98 165 114 0
23 -32 21 -83 -5 -157 -76 -349 -74 -516 7 -131 64 -267 233 -287 356 l-7 42
474 0 c261 0 480 4 488 9 11 7 12 24 7 81 -25 251 -184 443 -426 514 -81 24
-212 29 -295 10z m290 -95 c102 -38 189 -126 215 -217 15 -51 24 -164 16 -196
l-6 -26 -387 0 -386 0 6 68 c15 180 123 332 268 377 70 22 208 19 274 -6z"/>
<path d="M5920 2370 c-164 -28 -302 -119 -397 -263 -180 -271 -134 -585 117
-790 197 -161 469 -198 706 -96 78 33 184 108 184 130 0 25 -13 24 -74 -6
-158 -76 -349 -74 -516 7 -131 63 -290 263 -290 364 l0 34 474 0 c405 0 475 2
486 15 9 11 10 33 1 94 -20 151 -67 250 -167 348 -132 130 -339 195 -524 163z
m201 -80 c116 -22 200 -85 253 -190 37 -74 54 -170 42 -235 l-7 -35 -384 0
-385 0 0 48 c0 26 7 74 15 107 58 219 250 346 466 305z"/>
<path d="M8098 2370 c-166 -28 -329 -140 -414 -284 -63 -106 -88 -196 -88
-316 1 -90 5 -116 29 -180 72 -193 217 -330 420 -397 112 -36 275 -38 385 -4
151 47 302 142 273 172 -10 10 -26 6 -80 -19 -87 -40 -140 -51 -235 -52 -101
0 -167 14 -253 56 -161 77 -268 208 -309 376 l-6 28 482 2 483 3 3 63 c9 194
-120 400 -309 490 -129 62 -256 83 -381 62z m264 -97 c101 -39 170 -109 208
-210 25 -66 35 -169 21 -205 l-11 -28 -380 0 -380 0 0 53 c0 105 51 228 124
301 47 48 129 92 196 106 60 12 170 4 222 -17z"/>
<path d="M10016 2365 c-38 -8 -101 -30 -140 -48 -125 -59 -175 -131 -176 -248
0 -83 31 -148 104 -217 59 -56 95 -76 304 -166 180 -79 235 -109 283 -157 49
-49 64 -94 49 -150 -24 -89 -125 -141 -275 -142 -197 -2 -370 96 -451 256 -21
40 -28 46 -40 37 -20 -18 -17 -44 12 -102 50 -98 156 -178 304 -228 81 -27
276 -38 363 -21 140 30 256 118 297 228 18 50 20 62 9 112 -30 148 -126 236
-369 340 -241 103 -340 164 -366 227 -60 144 75 240 300 213 128 -16 243 -93
302 -203 27 -51 32 -55 49 -43 17 13 17 16 -8 71 -36 78 -77 127 -140 169
-109 73 -271 101 -411 72z"/>
<path d="M1554 2345 c-4 -14 -2 -281 2 -593 l9 -567 108 -3 107 -3 0 590 c0
528 -2 589 -16 595 -9 3 -58 6 -110 6 -92 0 -94 0 -100 -25z"/>
<path d="M1994 2361 c-2 -2 -4 -269 -4 -593 l0 -589 108 3 107 3 5 445 c6 505
0 470 93 534 89 61 258 105 346 90 85 -15 145 -86 170 -202 7 -34 11 -197 11
-463 l0 -410 113 3 112 3 3 380 c4 523 -10 625 -102 720 -119 124 -436 103
-674 -46 -35 -21 -65 -39 -68 -39 -2 0 -4 33 -4 73 0 39 -4 78 -8 84 -6 9 -37
12 -106 10 -54 -1 -99 -4 -102 -6z"/>
<path d="M8905 2358 c-3 -7 -4 -274 -3 -593 l3 -580 113 -3 112 -3 0 378 0
378 30 37 c42 51 201 183 252 211 29 15 60 22 96 22 47 0 57 -4 80 -31 15 -17
32 -39 38 -50 19 -31 24 -13 27 90 2 96 1 98 -26 122 -41 35 -106 33 -185 -7
-49 -24 -87 -57 -179 -155 -64 -68 -120 -124 -125 -124 -4 0 -8 67 -8 150 0
137 -2 150 -19 160 -29 15 -200 13 -206 -2z"/>
</g>
</svg>
